<svg width="13" height="13" viewBox="0 0 13 13" fill="none" xmlns="http://www.w3.org/2000/svg">
<path fill-rule="evenodd" clip-rule="evenodd" d="M6.5001 12.9C10.0347 12.9 12.9001 10.0346 12.9001 6.50001C12.9001 2.96538 10.0347 0.100006 6.5001 0.100006C2.96548 0.100006 0.100098 2.96538 0.100098 6.50001C0.100098 10.0346 2.96548 12.9 6.5001 12.9ZM5.46578 4.33432C5.15336 4.0219 4.64683 4.0219 4.33441 4.33432C4.02199 4.64674 4.02199 5.15327 4.33441 5.46569L5.36873 6.50001L4.33441 7.53432C4.02199 7.84674 4.02199 8.35327 4.33441 8.66569C4.64683 8.97811 5.15336 8.97811 5.46578 8.66569L6.5001 7.63138L7.53441 8.66569C7.84683 8.97811 8.35336 8.97811 8.66578 8.66569C8.9782 8.35327 8.9782 7.84674 8.66578 7.53432L7.63147 6.50001L8.66578 5.46569C8.9782 5.15327 8.9782 4.64674 8.66578 4.33432C8.35336 4.0219 7.84683 4.0219 7.53441 4.33432L6.5001 5.36863L5.46578 4.33432Z" fill="white"/>
</svg>
