<svg width="17" height="17" viewBox="0 0 17 17" fill="none" xmlns="http://www.w3.org/2000/svg">
<path fill-rule="evenodd" clip-rule="evenodd" d="M3.6999 2.10001C4.14173 2.10001 4.4999 2.45818 4.4999 2.90001V4.58101C5.51598 3.54391 6.93232 2.90001 8.4999 2.90001C10.9394 2.90001 13.0127 4.45946 13.781 6.63341C13.9283 7.04998 13.7099 7.50704 13.2934 7.65428C12.8768 7.80152 12.4197 7.58318 12.2725 7.1666C11.723 5.61193 10.2403 4.50001 8.4999 4.50001C7.19196 4.50001 6.02953 5.12802 5.29938 6.10001H7.6999C8.14173 6.10001 8.4999 6.45818 8.4999 6.90001C8.4999 7.34183 8.14173 7.70001 7.6999 7.70001H3.6999C3.25807 7.70001 2.8999 7.34183 2.8999 6.90001V2.90001C2.8999 2.45818 3.25807 2.10001 3.6999 2.10001ZM3.70643 9.34573C4.12301 9.1985 4.58007 9.41684 4.7273 9.83341C5.2768 11.3881 6.75953 12.5 8.4999 12.5C9.80785 12.5 10.9703 11.872 11.7004 10.9L9.2999 10.9C8.85808 10.9 8.4999 10.5418 8.4999 10.1C8.4999 9.65818 8.85808 9.30001 9.2999 9.30001H13.2999C13.5121 9.3 13.7156 9.38429 13.8656 9.53432C14.0156 9.68435 14.0999 9.88783 14.0999 10.1V14.1C14.0999 14.5418 13.7417 14.9 13.2999 14.9C12.8581 14.9 12.4999 14.5418 12.4999 14.1V12.419C11.4838 13.4561 10.0675 14.1 8.4999 14.1C6.06038 14.1 3.98714 12.5405 3.21876 10.3666C3.07152 9.95003 3.28986 9.49297 3.70643 9.34573Z" fill="white"/>
</svg>
